<svg width="43" height="44" fill="none" xmlns="http://www.w3.org/2000/svg"><path d="M21.444 40.745c-2.613 0-5.059-.49-7.337-1.467-2.279-.978-4.27-2.319-5.974-4.022-1.703-1.704-3.044-3.695-4.022-5.974-.978-2.278-1.467-4.724-1.467-7.337 0-2.608.49-5.052 1.467-7.334.978-2.281 2.319-4.274 4.022-5.978 1.704-1.703 3.695-3.044 5.974-4.022 2.278-.978 4.724-1.466 7.337-1.466 2.608 0 5.052.488 7.334 1.466 2.281.978 4.274 2.319 5.978 4.022 1.703 1.704 3.044 3.697 4.022 5.978.978 2.282 1.466 4.732 1.466 7.352V24.3c0 1.926-.644 3.474-1.933 4.645-1.289 1.17-2.911 1.755-4.867 1.755a6.511 6.511 0 0 1-3.264-.844c-.994-.563-1.728-1.334-2.202-2.312-.711 1.097-1.637 1.897-2.778 2.4-1.14.504-2.393.756-3.756.756-2.44 0-4.516-.844-6.23-2.532-1.713-1.688-2.57-3.77-2.57-6.244 0-2.446.856-4.528 2.568-6.246 1.71-1.719 3.785-2.578 6.222-2.578 2.466 0 4.551.852 6.255 2.556 1.704 1.703 2.555 3.8 2.555 6.289v2.041c0 .858.312 1.584.934 2.178.622.595 1.378.892 2.266.892.86 0 1.593-.297 2.2-.892.608-.594.912-1.32.912-2.178v-2.041c0-4.238-1.46-7.815-4.378-10.734-2.919-2.918-6.504-4.378-10.756-4.378-4.192 0-7.755 1.467-10.689 4.4-2.933 2.934-4.4 6.504-4.4 10.712 0 4.237 1.46 7.814 4.378 10.733 2.919 2.918 6.496 4.378 10.733 4.378h7.69c.512 0 .944.177 1.295.533.351.355.527.792.527 1.31 0 .52-.176.957-.527 1.312a1.75 1.75 0 0 1-1.296.534h-7.689zm.01-13.69c1.416 0 2.627-.496 3.635-1.49 1.007-.993 1.511-2.193 1.511-3.6 0-1.436-.507-2.665-1.522-3.687-1.014-1.022-2.229-1.534-3.644-1.534s-2.627.512-3.634 1.534c-1.007 1.022-1.511 2.251-1.511 3.688 0 1.406.507 2.606 1.521 3.6 1.015.993 2.23 1.49 3.645 1.49z" fill="#fff"/></svg>