<svg width="24" height="24" fill="none" xmlns="http://www.w3.org/2000/svg"><path d="M12 11.975c-1.1 0-2-.35-2.7-1.05-.7-.7-1.05-1.6-1.05-2.7s.35-2 1.05-2.7c.7-.7 1.6-1.05 2.7-1.05s2 .35 2.7 1.05c.7.7 1.05 1.6 1.05 2.7s-.35 2-1.05 2.7c-.7.7-1.6 1.05-2.7 1.05zM4 20v-2.35c0-.633.158-1.175.475-1.625A3.05 3.05 0 0 1 5.7 15c1.117-.5 2.188-.875 3.212-1.125A12.987 12.987 0 0 1 12 13.5c1.033 0 2.058.13 3.075.388 1.017.258 2.083.629 3.2 1.112.517.233.933.575 1.25 1.025.317.45.475.992.475 1.625V20H4z" fill="#203253"/></svg>