<svg width="29" height="30" fill="none" xmlns="http://www.w3.org/2000/svg"><path d="M2.852 16.707V9.499c0-.463.183-.88.548-1.252.365-.372.775-.558 1.23-.558h5.63V4.945c0-.463.177-.88.533-1.252.355-.372.77-.558 1.244-.558h5.333c.455 0 .864.186 1.23.558.365.372.548.79.548 1.252v2.744h5.63c.474 0 .889.186 1.244.558.356.372.534.79.534 1.252v7.208H17.4v-.905a.883.883 0 0 0-.89-.905h-3.561a.84.84 0 0 0-.63.26.89.89 0 0 0-.252.645v.905H2.852zm9.185-9.018h5.333V4.945h-5.333v2.744zm1.807 10.827v-1.81h1.778v1.81h-1.778zm-9.214 7.54c-.455 0-.865-.186-1.23-.558-.365-.372-.548-.79-.548-1.252v-5.73h9.215v.905a.883.883 0 0 0 .89.905h3.56a.841.841 0 0 0 .631-.26.89.89 0 0 0 .252-.645v-.905h9.155v5.73c0 .463-.177.88-.533 1.252-.355.372-.77.558-1.244.558H4.63z" fill="#fff"/></svg>