<svg width="29" height="29" fill="none" xmlns="http://www.w3.org/2000/svg"><path d="M5.815 24.548c-.49 0-.908-.174-1.256-.522a1.712 1.712 0 0 1-.522-1.256V5.526c0-.489.153-.907.46-1.255.305-.349.567-.523.784-.523h5.986a2.864 2.864 0 0 1 1.022-1.703 2.885 2.885 0 0 1 1.881-.667c.711 0 1.339.222 1.882.667a2.863 2.863 0 0 1 1.022 1.703h5.985c.49 0 .908.174 1.256.523.348.348.522.766.522 1.255v7.289h-1.778V5.526h-3.14V7.6c0 .489-.175.908-.523 1.256a1.712 1.712 0 0 1-1.255.522h-7.408c-.489 0-.907-.174-1.255-.522A1.712 1.712 0 0 1 8.956 7.6V5.526H5.815V22.77h7.407v1.778H5.815zm20.059 2.163-2.933-2.933a3.702 3.702 0 0 1-1.348.681 5.848 5.848 0 0 1-1.556.208c-1.4 0-2.588-.49-3.568-1.47S15 21.027 15 19.627s.49-2.59 1.47-3.568c.98-.977 2.17-1.466 3.57-1.466s2.59.49 3.567 1.469c.978.98 1.467 2.169 1.467 3.568 0 .533-.07 1.052-.207 1.555a3.702 3.702 0 0 1-.682 1.349l2.934 2.933a.853.853 0 0 1 .266.622.853.853 0 0 1-.267.622.853.853 0 0 1-.622.267.853.853 0 0 1-.622-.267zm-5.837-3.822c.928 0 1.704-.311 2.326-.933.622-.622.933-1.398.933-2.326 0-.929-.31-1.704-.933-2.326-.622-.622-1.398-.933-2.326-.933-.928 0-1.704.31-2.326.933-.622.622-.933 1.397-.933 2.326 0 .928.31 1.704.933 2.326.622.622 1.398.933 2.326.933zM14.704 5.408c.335 0 .617-.114.844-.341.227-.227.34-.509.34-.845 0-.335-.113-.617-.34-.844a1.147 1.147 0 0 0-.844-.34c-.336 0-.618.113-.845.34-.227.227-.34.509-.34.844 0 .336.113.618.34.845.227.227.509.34.845.34z" fill="#fff"/></svg>