<svg width="29" height="29" fill="none" xmlns="http://www.w3.org/2000/svg"><path d="M10.822 21.111h7.763a.857.857 0 0 0 .633-.257.868.868 0 0 0 .256-.637.867.867 0 0 0-.889-.884h-7.763a.857.857 0 0 0-.633.258.868.868 0 0 0-.256.636.867.867 0 0 0 .889.884zm0-5.037h7.763a.858.858 0 0 0 .633-.257.868.868 0 0 0 .256-.637.867.867 0 0 0-.889-.884h-7.763a.858.858 0 0 0-.633.258.868.868 0 0 0-.256.636.867.867 0 0 0 .889.884zM7 26.148c-.474 0-.889-.177-1.244-.533-.356-.356-.534-.77-.534-1.244V4.221c0-.474.178-.889.534-1.244.355-.356.77-.533 1.244-.533h9.956c.245 0 .48.049.702.148.223.098.414.227.572.385L23.652 8.4c.158.158.286.349.385.571.099.223.148.457.148.703v14.697c0 .474-.178.888-.533 1.244-.356.356-.77.533-1.245.533H7zm9.807-17.303a.86.86 0 0 0 .256.633.86.86 0 0 0 .633.255h4.711l-5.6-5.51v4.622z" fill="#fff"/></svg>