<svg width="29" height="30" fill="none" xmlns="http://www.w3.org/2000/svg"><path d="M5.815 26.156c-.49 0-.908-.177-1.256-.531a1.758 1.758 0 0 1-.522-1.278v-13.12c0-.497.174-.923.522-1.277a1.697 1.697 0 0 1 1.256-.532h3.11V6.252c0-.498.175-.924.523-1.278a1.697 1.697 0 0 1 1.256-.532h8c.488 0 .907.177 1.255.532.348.354.522.78.522 1.278v8.143h3.111c.49 0 .908.177 1.256.531.348.354.522.78.522 1.278v8.143c0 .497-.174.923-.522 1.278a1.697 1.697 0 0 1-1.255.531h-7.319V21.18h-3.14v4.976h-7.32zm0-1.81h3.11V21.18h-3.11v3.167zm0-4.975h3.11v-3.167h-3.11v3.167zm0-4.976h3.11v-3.167h-3.11v3.167zm4.889 4.976h3.11v-3.167h-3.11v3.167zm0-4.976h3.11v-3.167h-3.11v3.167zm0-4.977h3.11V6.252h-3.11v3.166zm4.888 9.953h3.112v-3.167h-3.112v3.167zm0-4.976h3.112v-3.167h-3.112v3.167zm0-4.977h3.112V6.252h-3.112v3.166zm4.89 14.929h3.11V21.18h-3.11v3.167zm0-4.976h3.11v-3.167h-3.11v3.167z" fill="#fff"/></svg>