<svg width="29" height="30" fill="none" xmlns="http://www.w3.org/2000/svg"><path d="M16.481 17.038c.988 0 1.828-.352 2.519-1.055.691-.704 1.037-1.558 1.037-2.564 0-1.005-.346-1.86-1.037-2.563A3.399 3.399 0 0 0 16.481 9.8c-.987 0-1.827.352-2.518 1.056-.691.704-1.037 1.558-1.037 2.563 0 1.006.346 1.86 1.037 2.564a3.399 3.399 0 0 0 2.518 1.055zM7 21.261c-.489 0-.907-.178-1.256-.532a1.758 1.758 0 0 1-.522-1.278V7.388c0-.498.174-.924.522-1.278A1.697 1.697 0 0 1 7 5.578h18.963c.489 0 .907.177 1.255.532.349.354.523.78.523 1.278V19.45c0 .498-.174.924-.523 1.278a1.697 1.697 0 0 1-1.255.532H7zM3.444 24.88c-.488 0-.907-.178-1.255-.532a1.758 1.758 0 0 1-.522-1.278V10.102a.88.88 0 0 1 .257-.645.86.86 0 0 1 .637-.26c.253 0 .464.087.632.26a.89.89 0 0 1 .251.645V23.07h19.852a.85.85 0 0 1 .634.262c.17.174.255.39.255.648a.873.873 0 0 1-.889.9H3.444zM7 10.404c.83 0 1.53-.292 2.104-.875.573-.583.859-1.297.859-2.141H7v3.015zm18.963 0V7.387H23c0 .844.286 1.558.86 2.14.572.584 1.273.875 2.103.875zM7 19.45h2.963c0-.844-.286-1.558-.86-2.141-.572-.583-1.273-.875-2.103-.875v3.016zm16 0h2.963v-3.016c-.83 0-1.53.292-2.104.875-.573.583-.859 1.297-.859 2.141z" fill="#fff"/></svg>