<svg width="29" height="30" fill="none" xmlns="http://www.w3.org/2000/svg"><path d="M14.704 14.863c-1.304 0-2.37-.423-3.2-1.267-.83-.845-1.245-1.93-1.245-3.257 0-1.327.415-2.413 1.245-3.257.83-.845 1.896-1.267 3.2-1.267 1.303 0 2.37.422 3.2 1.267.83.844 1.244 1.93 1.244 3.257 0 1.327-.415 2.412-1.244 3.257-.83.844-1.897 1.267-3.2 1.267zM7 24.543a1.7 1.7 0 0 1-1.26-.527 1.76 1.76 0 0 1-.518-1.282v-1.026c0-.763.188-1.417.563-1.96a3.63 3.63 0 0 1 1.452-1.236c1.323-.604 2.593-1.056 3.807-1.358a15.14 15.14 0 0 1 3.66-.452 14.5 14.5 0 0 1 3.644.468c1.205.311 2.47.759 3.793 1.342a3.586 3.586 0 0 1 1.481 1.236c.375.543.563 1.197.563 1.96v1.026c0 .502-.173.93-.518 1.282a1.699 1.699 0 0 1-1.26.527H7z" fill="#fff"/></svg>