<svg width="29" height="30" fill="none" xmlns="http://www.w3.org/2000/svg"><path d="M24.481 21.593H7c-.489 0-.907-.177-1.256-.532a1.758 1.758 0 0 1-.522-1.278V5.91H3.741a.85.85 0 0 1-.634-.261A.892.892 0 0 1 2.852 5a.874.874 0 0 1 .889-.9h1.481c.49 0 .908.178 1.256.532.348.355.522.78.522 1.278v13.873H24.48a.85.85 0 0 1 .634.262c.17.174.255.39.255.648a.874.874 0 0 1-.889.9zM6.974 27.02c-.496 0-.912-.177-1.248-.533a1.8 1.8 0 0 1-.504-1.282c0-.499.168-.924.504-1.276a1.655 1.655 0 0 1 1.248-.528c.496 0 .92.178 1.274.533.353.356.53.783.53 1.282 0 .5-.177.925-.53 1.277a1.74 1.74 0 0 1-1.274.527zm2.989-9.349a.883.883 0 0 1-.889-.905v-4.825a.884.884 0 0 1 .889-.905h4.74a.883.883 0 0 1 .889.905v4.825a.883.883 0 0 1-.888.905H9.963zm8.296 0a.883.883 0 0 1-.889-.905v-4.825a.883.883 0 0 1 .89-.905H23a.883.883 0 0 1 .889.905v4.825a.883.883 0 0 1-.889.905h-4.74zm5.328 9.35c-.49 0-.908-.178-1.254-.534a1.772 1.772 0 0 1-.518-1.282c0-.499.174-.924.523-1.276a1.71 1.71 0 0 1 1.26-.528c.49 0 .908.178 1.254.533.346.356.518.783.518 1.282 0 .5-.174.925-.523 1.277a1.71 1.71 0 0 1-1.26.527z" fill="#fff"/></svg>