<svg width="29" height="30" fill="none" xmlns="http://www.w3.org/2000/svg"><path d="M10.911 21.904h1.778V11.71h-3.26v1.81h1.482v8.384zm5.156 0h2.163c.513 0 .938-.171 1.274-.513.335-.342.503-.774.503-1.297V13.52c0-.523-.168-.955-.503-1.297-.336-.342-.76-.513-1.274-.513h-2.163c-.514 0-.939.171-1.274.513-.336.342-.504.774-.504 1.297v6.574c0 .523.168.955.504 1.297.335.342.76.513 1.274.513zm0-1.81V13.52h2.163v6.574h-2.163zM11.148 3.84v-1.81h7.111v1.81h-7.11zm3.556 23.493c-1.462 0-2.84-.286-4.134-.86a10.888 10.888 0 0 1-3.392-2.337 11.101 11.101 0 0 1-2.297-3.453 10.59 10.59 0 0 1-.844-4.207c0-1.488.281-2.89.844-4.207a11.102 11.102 0 0 1 2.297-3.453 10.888 10.888 0 0 1 3.392-2.337 10.093 10.093 0 0 1 4.134-.86c1.323 0 2.563.221 3.718.664a10.053 10.053 0 0 1 3.096 1.87l1.512-1.539 1.274 1.297-1.511 1.538c.71.804 1.318 1.78 1.822 2.926.504 1.146.755 2.513.755 4.101 0 1.488-.281 2.89-.844 4.207a11.102 11.102 0 0 1-2.296 3.454 10.888 10.888 0 0 1-3.393 2.337c-1.294.573-2.672.86-4.133.86zm0-1.81c2.469 0 4.568-.879 6.296-2.638 1.728-1.76 2.593-3.896 2.593-6.409s-.865-4.65-2.593-6.409c-1.728-1.759-3.827-2.638-6.296-2.638-2.47 0-4.568.88-6.297 2.638-1.728 1.76-2.592 3.896-2.592 6.41 0 2.512.864 4.649 2.592 6.408 1.729 1.76 3.828 2.639 6.297 2.639z" fill="#fff"/></svg>