<svg width="29" height="30" fill="none" xmlns="http://www.w3.org/2000/svg"><path d="m8.481 24.045-3.674-.754a.883.883 0 0 1-.548-.347.803.803 0 0 1-.163-.648l.415-3.619-2.34-2.775a.826.826 0 0 1-.238-.603c0-.241.08-.442.237-.603l2.341-2.744-.415-3.62a.803.803 0 0 1 .163-.648.883.883 0 0 1 .548-.347l3.674-.754 1.838-3.227a.953.953 0 0 1 .503-.422.819.819 0 0 1 .652.03l3.23 1.538 3.23-1.538c.217-.1.439-.12.666-.06.227.06.39.201.489.422l1.867 3.257 3.644.754c.217.04.4.156.548.347a.803.803 0 0 1 .163.649l-.415 3.619 2.341 2.744c.158.16.237.362.237.603a.826.826 0 0 1-.237.603l-2.34 2.775.414 3.619a.803.803 0 0 1-.163.648.883.883 0 0 1-.548.347l-3.645.754-1.866 3.227a.715.715 0 0 1-.489.422.957.957 0 0 1-.667-.06l-3.23-1.538-3.229 1.538a.819.819 0 0 1-.652.03.953.953 0 0 1-.503-.422L8.48 24.045zm4.326-5.368a.846.846 0 0 0 1.245 0l5.481-5.52a.797.797 0 0 0 .223-.617.949.949 0 0 0-.282-.649.812.812 0 0 0-.637-.256c-.247.01-.47.106-.667.286l-4.74 4.796-2.163-2.323a.81.81 0 0 0-.667-.286.901.901 0 0 0-.667.317 1.081 1.081 0 0 0-.281.693.82.82 0 0 0 .281.664l2.874 2.895z" fill="#fff"/></svg>