<svg width="25" height="24" fill="none" xmlns="http://www.w3.org/2000/svg"><path d="M12.244 11.9c.52 0 .969-.186 1.344-.556.375-.371.562-.817.562-1.338 0-.52-.185-.969-.556-1.344a1.814 1.814 0 0 0-1.338-.562c-.52 0-.969.185-1.344.556-.375.371-.562.817-.562 1.338 0 .52.185.969.556 1.344.371.375.817.562 1.338.562zm.006 7.55c2.073-1.906 3.603-3.634 4.592-5.185.989-1.55 1.483-2.909 1.483-4.073 0-1.836-.586-3.34-1.758-4.51-1.171-1.172-2.609-1.757-4.311-1.757-1.703 0-3.142.586-4.318 1.758-1.175 1.172-1.763 2.676-1.763 4.514 0 1.169.507 2.524 1.521 4.067 1.014 1.543 2.532 3.271 4.554 5.186zm.006 2.575a1.71 1.71 0 0 1-.543-.087 1.337 1.337 0 0 1-.463-.263c-2.5-2.233-4.362-4.294-5.587-6.184-1.225-1.89-1.838-3.654-1.838-5.291 0-2.63.847-4.725 2.54-6.285 1.693-1.56 3.654-2.34 5.883-2.34 2.228 0 4.19.78 5.885 2.34 1.695 1.56 2.542 3.655 2.542 6.285 0 1.633-.613 3.396-1.838 5.288-1.224 1.892-3.087 3.954-5.587 6.187a1.348 1.348 0 0 1-.456.262c-.171.059-.35.088-.538.088z" fill="#203253"/></svg>