<svg width="90" height="18" fill="none" xmlns="http://www.w3.org/2000/svg"><path d="m9 13.706-3.487 2.1a.558.558 0 0 1-.619-.019.554.554 0 0 1-.225-.581l.918-3.975-3.074-2.68a.503.503 0 0 1-.179-.292.735.735 0 0 1 .01-.309.458.458 0 0 1 .169-.253.6.6 0 0 1 .318-.122L6.9 7.22l1.575-3.75a.525.525 0 0 1 .225-.253c.1-.057.2-.085.3-.085.1 0 .2.028.3.085.1.056.175.14.225.253l1.575 3.75 4.069.356a.6.6 0 0 1 .319.122.458.458 0 0 1 .168.253c.025.1.028.203.01.31a.503.503 0 0 1-.178.29l-3.075 2.681.918 3.975a.553.553 0 0 1-.225.582.558.558 0 0 1-.618.018L9 13.706zM27 13.706l-3.488 2.1a.558.558 0 0 1-.619-.019.554.554 0 0 1-.225-.581l.92-3.975-3.076-2.68a.503.503 0 0 1-.178-.292.734.734 0 0 1 .01-.309.458.458 0 0 1 .168-.253.6.6 0 0 1 .32-.122L24.9 7.22l1.575-3.75a.525.525 0 0 1 .225-.253c.1-.057.2-.085.3-.085.1 0 .2.028.3.085.1.056.175.14.225.253l1.575 3.75 4.069.356a.6.6 0 0 1 .319.122.458.458 0 0 1 .168.253c.025.1.028.203.01.31a.503.503 0 0 1-.178.29l-3.075 2.681.918 3.975a.554.554 0 0 1-.225.582.558.558 0 0 1-.619.018L27 13.706zM45 13.706l-3.487 2.1a.558.558 0 0 1-.619-.019.554.554 0 0 1-.225-.581l.918-3.975-3.075-2.68a.503.503 0 0 1-.178-.292.734.734 0 0 1 .01-.309.458.458 0 0 1 .169-.253.6.6 0 0 1 .318-.122L42.9 7.22l1.575-3.75a.525.525 0 0 1 .225-.253c.1-.057.2-.085.3-.085.1 0 .2.028.3.085.1.056.175.14.225.253l1.575 3.75 4.069.356a.6.6 0 0 1 .319.122.458.458 0 0 1 .168.253c.025.1.028.203.01.31a.503.503 0 0 1-.178.29l-3.075 2.681.918 3.975a.554.554 0 0 1-.225.582.558.558 0 0 1-.619.018L45 13.706zM63 13.706l-3.487 2.1a.558.558 0 0 1-.619-.019.554.554 0 0 1-.225-.581l.918-3.975-3.075-2.68a.503.503 0 0 1-.178-.292.734.734 0 0 1 .01-.309.458.458 0 0 1 .169-.253.6.6 0 0 1 .318-.122L60.9 7.22l1.575-3.75a.525.525 0 0 1 .225-.253c.1-.057.2-.085.3-.085.1 0 .2.028.3.085.1.056.175.14.225.253l1.575 3.75 4.069.356a.6.6 0 0 1 .319.122.458.458 0 0 1 .168.253c.025.1.028.203.01.31a.503.503 0 0 1-.178.29l-3.076 2.681.92 3.975a.554.554 0 0 1-.226.582.558.558 0 0 1-.618.018L63 13.706zM81 13.706l-3.487 2.1a.558.558 0 0 1-.619-.019.554.554 0 0 1-.225-.581l.919-3.975-3.075-2.68a.503.503 0 0 1-.179-.292.734.734 0 0 1 .01-.309.458.458 0 0 1 .169-.253.6.6 0 0 1 .318-.122L78.9 7.22l1.575-3.75a.525.525 0 0 1 .225-.253c.1-.057.2-.085.3-.085.1 0 .2.028.3.085.1.056.175.14.225.253l1.575 3.75 4.069.356a.6.6 0 0 1 .319.122.458.458 0 0 1 .168.253c.025.1.028.203.01.31a.503.503 0 0 1-.178.29l-3.076 2.681.92 3.975a.554.554 0 0 1-.226.582.558.558 0 0 1-.618.018L81 13.706z" fill="#72B3EA"/></svg>