<svg width="43" height="43" fill="none" xmlns="http://www.w3.org/2000/svg"><path d="m7.156 33.889-3.29-11.422a1.348 1.348 0 0 1 .067-1.045c.163-.34.423-.57.778-.689l2.622-.889V9.89c0-.74.26-1.363.778-1.867a2.779 2.779 0 0 1 1.889-.8h6.667v-4c0-.378.127-.694.383-.95A1.29 1.29 0 0 1 18 1.89h7.111c.378 0 .695.128.95.383.256.256.384.572.384.95v4h6.666c.733 0 1.361.261 1.884.784.522.522.783 1.15.783 1.883v10l2.666.844c.326.119.57.341.734.667.163.326.185.667.067 1.022l-3.29 11.467a9.529 9.529 0 0 1-3.266-.933 14.37 14.37 0 0 1-2.822-1.823 1.6 1.6 0 0 0-.56-.31 2.05 2.05 0 0 0-.6-.09c-.204 0-.4.044-.588.132-.188.088-.361.207-.519.357a12.294 12.294 0 0 1-2.821 1.913 7.22 7.22 0 0 1-3.223.754 7.22 7.22 0 0 1-3.224-.754 12.294 12.294 0 0 1-2.82-1.913 1.987 1.987 0 0 0-.53-.357 1.403 1.403 0 0 0-.59-.132 2 2 0 0 0-.592.09c-.193.058-.378.162-.556.31-.859.712-1.8 1.319-2.822 1.823a9.529 9.529 0 0 1-3.266.933zM5.11 41c-.378 0-.694-.129-.95-.386a1.301 1.301 0 0 1-.383-.955 1.3 1.3 0 0 1 1.333-1.326h2.222c1.068 0 2.12-.14 3.156-.422a12.993 12.993 0 0 0 2.978-1.222c.148-.06.304-.111.467-.156.164-.044.334-.066.51-.066.177 0 .347.022.51.066.164.045.32.097.468.156.948.504 1.948.889 3 1.155 1.052.267 2.096.4 3.134.4 1.037 0 2.081-.133 3.133-.4a13.381 13.381 0 0 0 3-1.155c.148-.06.304-.111.468-.156.163-.044.333-.066.51-.066.176 0 .346.022.51.066.163.045.32.097.468.156.948.533 1.94.94 2.977 1.222 1.037.282 2.089.422 3.156.422H38c.378 0 .694.129.95.386s.383.575.383.956c0 .38-.127.695-.383.947A1.3 1.3 0 0 1 38 41h-2.222c-1.215 0-2.415-.156-3.6-.467a17.324 17.324 0 0 1-3.511-1.355 17.04 17.04 0 0 1-3.556 1.355c-1.215.311-2.4.467-3.555.467-1.156 0-2.341-.156-3.556-.467a17.037 17.037 0 0 1-3.556-1.355 17.327 17.327 0 0 1-3.51 1.355 14.122 14.122 0 0 1-3.6.467H5.11zM10 19l10.711-3.467c.272-.088.554-.133.848-.133.294 0 .574.044.841.133l10.711 3.511V9.89H10V19z" fill="#fff"/></svg>