<svg width="39" height="39" fill="none" xmlns="http://www.w3.org/2000/svg"><path d="M6.607 33.617c-.342 0-.625-.111-.849-.335a1.151 1.151 0 0 1-.336-.85c0-.342.112-.625.336-.85.224-.223.507-.335.85-.335h26.074c.342 0 .625.112.849.336.224.224.336.507.336.85 0 .342-.112.625-.336.849a1.15 1.15 0 0 1-.85.335H6.607zm2.173-8.454c-.263.08-.52.066-.77-.04a1.147 1.147 0 0 1-.573-.513l-2.963-5.057c-.184-.29-.217-.566-.099-.83.119-.263.35-.42.692-.473a.844.844 0 0 1 .434.039c.158.053.29.118.395.198l2.41 2.133 8.929-2.41-5.926-9.916c-.237-.395-.284-.777-.139-1.146.145-.368.441-.619.89-.75.21-.053.434-.053.67 0 .238.052.435.145.593.276l10.707 9.68 8.533-2.292c.711-.21 1.356-.086 1.936.375.58.461.869 1.073.869 1.837 0 .5-.152.948-.454 1.343a2.162 2.162 0 0 1-1.166.79L8.78 25.163z" fill="#fff"/></svg>