<svg width="43" height="43" fill="none" xmlns="http://www.w3.org/2000/svg"><path d="M9.96 35.622c-1.455 0-2.693-.504-3.716-1.51-1.022-1.008-1.533-2.253-1.533-3.734h-.267a2.568 2.568 0 0 1-1.883-.784 2.568 2.568 0 0 1-.783-1.883V9.89c0-.711.266-1.333.8-1.867.533-.533 1.155-.8 1.866-.8h23.067c.733 0 1.361.261 1.883.783.523.523.784 1.15.784 1.884v4.755h4c.222 0 .422.045.6.134.178.089.333.222.466.4l5.378 7.155c.09.111.156.234.2.367.045.133.067.278.067.433v5.911c0 .378-.128.695-.383.95a1.29 1.29 0 0 1-.95.384h-1.823c0 1.481-.509 2.726-1.528 3.733-1.018 1.008-2.256 1.511-3.71 1.511-1.456 0-2.695-.504-3.717-1.51-1.022-1.008-1.534-2.253-1.534-3.734H15.2c0 1.481-.51 2.726-1.528 3.733-1.019 1.008-2.256 1.511-3.711 1.511zm-.004-2.666c.71 0 1.318-.252 1.822-.756a2.483 2.483 0 0 0 .755-1.822c0-.711-.252-1.319-.755-1.823a2.483 2.483 0 0 0-1.822-.755c-.712 0-1.319.252-1.823.755a2.483 2.483 0 0 0-.755 1.823c0 .71.252 1.318.755 1.822a2.483 2.483 0 0 0 1.823.755zm22.533 0c.711 0 1.318-.252 1.822-.756a2.483 2.483 0 0 0 .756-1.822c0-.711-.252-1.319-.756-1.823a2.483 2.483 0 0 0-1.822-.755c-.711 0-1.319.252-1.822.755a2.483 2.483 0 0 0-.756 1.823c0 .71.252 1.318.756 1.822a2.483 2.483 0 0 0 1.822.755zm-2.311-9.067h8.266l-4.933-6.578h-3.333v6.578z" fill="#fff"/></svg>