<svg width="43" height="43" fill="none" xmlns="http://www.w3.org/2000/svg"><path d="M13.022 37.4c-.504-.148-.83-.481-.978-1-.148-.518-.03-.97.356-1.355l1.156-1.156c-1.749 0-3.223-.6-4.423-1.8-1.2-1.2-1.8-2.674-1.8-4.422v-16.89c0-1.214.282-2.273.845-3.177.563-.904 1.43-1.644 2.6-2.222 1.17-.578 2.652-1.008 4.444-1.289 1.793-.282 3.904-.422 6.334-.422 2.548 0 4.718.133 6.51.4 1.793.266 3.26.689 4.4 1.266 1.141.578 1.978 1.312 2.512 2.2.533.89.8 1.97.8 3.245v16.889c0 1.748-.6 3.222-1.8 4.422-1.2 1.2-2.674 1.8-4.422 1.8l1.155 1.155c.385.386.504.838.356 1.356-.148.519-.474.852-.978 1-.237.06-.482.06-.733 0a1.32 1.32 0 0 1-.645-.355l-3.155-3.156h-8L14.4 37.044a1.32 1.32 0 0 1-.644.356c-.252.06-.497.06-.734 0zM10 18.556h10.4v-6.89H10v6.89zm13.067 0H33.11v-6.89H23.067v6.89zM15.11 28.778c.682 0 1.26-.237 1.733-.711a2.358 2.358 0 0 0 .712-1.734c0-.681-.238-1.259-.712-1.733a2.358 2.358 0 0 0-1.733-.711c-.681 0-1.26.237-1.733.711a2.359 2.359 0 0 0-.711 1.733c0 .682.237 1.26.71 1.734a2.359 2.359 0 0 0 1.734.71zm12.889 0c.681 0 1.26-.237 1.733-.711a2.358 2.358 0 0 0 .711-1.734c0-.681-.237-1.259-.71-1.733A2.358 2.358 0 0 0 28 23.89c-.681 0-1.26.237-1.733.711a2.359 2.359 0 0 0-.711 1.733c0 .682.237 1.26.71 1.734a2.358 2.358 0 0 0 1.734.71z" fill="#fff"/></svg>